<?xml version="1.0" encoding="UTF-8" standalone="no"?>
<svg
   width="51px"
   height="51px"
   viewBox="0 0 51 51"
   version="1.1"
   id="svg1"
   sodipodi:docname="add_button.svg"
   inkscape:version="1.4.2 (ebf0e940, 2025-05-08)"
   xmlns:inkscape="http://www.inkscape.org/namespaces/inkscape"
   xmlns:sodipodi="http://sodipodi.sourceforge.net/DTD/sodipodi-0.dtd"
   xmlns="http://www.w3.org/2000/svg"
   xmlns:svg="http://www.w3.org/2000/svg"
   xmlns:rdf="http://www.w3.org/1999/02/22-rdf-syntax-ns#"
   xmlns:cc="http://creativecommons.org/ns#"
   xmlns:dc="http://purl.org/dc/elements/1.1/">
  <sodipodi:namedview
     id="namedview1"
     pagecolor="#ffffff"
     bordercolor="#000000"
     borderopacity="0.25"
     inkscape:showpageshadow="2"
     inkscape:pageopacity="0.0"
     inkscape:pagecheckerboard="0"
     inkscape:deskcolor="#d1d1d1"
     inkscape:zoom="4.9893925"
     inkscape:cx="32.36867"
     inkscape:cy="25.454001"
     inkscape:window-width="1216"
     inkscape:window-height="823"
     inkscape:window-x="0"
     inkscape:window-y="304"
     inkscape:window-maximized="0"
     inkscape:current-layer="svg1" />
  <!-- Generator: Sketch 46 (44423) - http://www.bohemiancoding.com/sketch -->
  <title
     id="title1">Page 1</title>
  <desc
     id="desc1">Created with Sketch.</desc>
  <defs
     id="defs1" />
  <g
     id="g1"
     stroke="none"
     stroke-width="1"
     fill="none"
     fill-rule="evenodd"
     style="fill:#892651;fill-opacity:1">
    <g
       id="Desktop-Home-Copy-6"
       transform="translate(-906.000000, -799.000000)"
       fill="#FF4F58"
       style="fill:#892651;fill-opacity:1">
      <g
         id="Group-4"
         transform="translate(410.000000, 225.000000)"
         style="fill:#892651;fill-opacity:1">
        <path
           d="M509,574 L509,578 L513.5,578 L518,578 L522.5,578 L527,578 L531.5,578 L536,578 L536,574 L509,574 Z M534,582 L538,582 L538,578 L534,578 L534,582 Z M504.666667,578 L504.666667,582.249433 L500.333333,582.249433 L500.333333,586.5 L496,586.5 L496,590.75 L496,594.999433 L496,599.25 L496,603.5 L496,607.749433 L496,612 L500.333333,612 L500.333333,607.749433 L500.333333,603.5 L500.333333,599.25 L500.333333,594.999433 L500.333333,590.75 L500.333333,586.5 L504.666667,586.5 L504.666667,582.249433 L509,582.249433 L509,578 L504.666667,578 Z M539,586 L543,586 L543,582 L539,582 L539,586 Z M543,587 L543,591.5 L543,595.9994 L543,600.5 L543,605 L543,609.4994 L543,614 L547,614 L547,587 L543,587 Z M522.5,587 L518,587 L518,591.5 L518,595.9994 L513.5,595.9994 L509,595.9994 L509,600.5 L509,605 L513.5,605 L518,605 L518,609.4994 L518,614 L522.5,614 L527,614 L527,609.4994 L527,605 L531.5,605 L536,605 L536,600.5 L536,595.9994 L531.5,595.9994 L527,595.9994 L527,591.5 L527,587 L522.5,587 Z M539,616 L543,616 L543,612 L539,612 L539,616 Z M500,616 L504,616 L504,612 L500,612 L500,616 Z M534,621 L538,621 L538,617 L534,617 L534,621 Z M504,621 L508,621 L508,617 L504,617 L504,621 Z M531.5,621 L527,621 L522.5,621 L518,621 L513.5,621 L509,621 L509,625 L513.5,625 L518,625 L522.5,625 L527,625 L531.5,625 L536,625 L536,621 L531.5,621 Z"
           id="Page-1"
           style="fill:#892651;fill-opacity:1" />
      </g>
    </g>
  </g>
  <metadata
     id="metadata1">
    <rdf:RDF>
      <cc:Work
         rdf:about="">
        <dc:title>Page 1</dc:title>
      </cc:Work>
    </rdf:RDF>
  </metadata>
</svg>
