<?xml version="1.0" encoding="UTF-8" standalone="no"?>
<svg
   width="72px"
   height="72px"
   viewBox="0 0 72 72"
   version="1.1"
   id="svg1"
   sodipodi:docname="logo.svg"
   inkscape:version="1.4.2 (ebf0e940, 2025-05-08)"
   xmlns:inkscape="http://www.inkscape.org/namespaces/inkscape"
   xmlns:sodipodi="http://sodipodi.sourceforge.net/DTD/sodipodi-0.dtd"
   xmlns="http://www.w3.org/2000/svg"
   xmlns:svg="http://www.w3.org/2000/svg"
   xmlns:rdf="http://www.w3.org/1999/02/22-rdf-syntax-ns#"
   xmlns:cc="http://creativecommons.org/ns#"
   xmlns:dc="http://purl.org/dc/elements/1.1/">
  <sodipodi:namedview
     id="namedview1"
     pagecolor="#ffffff"
     bordercolor="#000000"
     borderopacity="0.25"
     inkscape:showpageshadow="2"
     inkscape:pageopacity="0.0"
     inkscape:pagecheckerboard="0"
     inkscape:deskcolor="#d1d1d1"
     inkscape:zoom="9.6805556"
     inkscape:cx="35.586801"
     inkscape:cy="35.483501"
     inkscape:window-width="1512"
     inkscape:window-height="916"
     inkscape:window-x="0"
     inkscape:window-y="304"
     inkscape:window-maximized="1"
     inkscape:current-layer="svg1" />
  <!-- Generator: Sketch 46 (44423) - http://www.bohemiancoding.com/sketch -->
  <title
     id="title1">Group 3</title>
  <desc
     id="desc1">Created with Sketch.</desc>
  <defs
     id="defs1" />
  <path
     d="M 12,60 V 54 H 6 v 6 z"
     style="fill:#892651;fill-opacity:1"
     id="path52" />
  <path
     d="m 18,66 v -6 h -6 v 6 z"
     style="fill:#892651;fill-opacity:1"
     id="path51" />
  <path
     d="m 60,60 h -6 v 6 h 6 z"
     style="fill:#892651;fill-opacity:1"
     id="path50" />
  <path
     d="m 54,66 h -6 -6 -6 -6 -6 -6 v 6 h 6 6 6 6 6 6 z"
     style="fill:#892651;fill-opacity:1"
     id="path49" />
  <path
     d="M 48.466797,51 V 49 H 25.066406 v 2 z"
     style="fill:#892651;fill-opacity:1"
     id="path48" />
  <path
     d="m 66,54 h -6 v 6 h 6 z"
     style="fill:#892651;fill-opacity:1"
     id="path47" />
  <path
     d="M 48.466797,51 H 25.066406 v 5 h 23.400391 z"
     style="fill:#892651;fill-opacity:1"
     id="path46" />
  <path
     d="M 53.152344,46.435547 H 20.466797 V 51 h 4.599609 v -2 h 23.400391 v 2 h 4.685547 z"
     style="fill:#892651;fill-opacity:1"
     id="path45" />
  <path
     d="M 53.152344,46.435547 V 44 H 20.466797 v 2.435547 z"
     style="fill:#892651;fill-opacity:1"
     id="path44" />
  <path
     d="m 53.552734,22.400391 v 2 H 46.03125 v 2.798828 h 4.285156 v 7.539062 H 46.03125 v 4.171875 h -7.630859 v -4.171875 h -4.800782 v -7.539062 h 4.800782 V 24.400391 H 20.867187 v -2 h -4.601562 v 24.035156 h 4.201172 V 44 h 32.685547 v 2.435547 h 5.308593 V 22.400391 Z"
     style="fill:#892651;fill-opacity:1"
     id="path43" />
  <path
     d="M 53.552734,22.400391 H 46.03125 v 2 h 7.521484 z"
     style="fill:#892651;fill-opacity:1"
     id="path42" />
  <path
     d="m 38.400391,24.400391 v -2 H 20.867187 v 2 z"
     style="fill:#892651;fill-opacity:1"
     id="path41" />
  <path
     d="m 48.867187,17.400391 v 2 h -23.40039 v -2 h -4.59961 v 5 h 17.533204 7.630859 7.521484 v -5 z"
     style="fill:#892651;fill-opacity:1"
     id="path40" />
  <path
     d="m 48.867187,17.400391 h -23.40039 v 2 h 23.40039 z"
     style="fill:#892651;fill-opacity:1"
     id="path39" />
  <path
     d="m 25.466797,12.400391 v 5 h 23.40039 v -5 z"
     style="fill:#892651;fill-opacity:1"
     id="path38" />
  <path
     d="m 66,18 v 6 6 6 6 6 6 h 6 V 18 Z"
     style="fill:#892651;fill-opacity:1"
     id="path37" />
  <path
     d="m 60,12 v 6 h 6 v -6 z"
     style="fill:#892651;fill-opacity:1"
     id="path36" />
  <path
     d="m 54,6 v 6 h 6 V 6 Z"
     style="fill:#892651;fill-opacity:1"
     id="path35" />
  <path
     d="m 18,0 v 6 h 6 6 6 6 6 6 V 0 Z"
     style="fill:#892651;fill-opacity:1"
     id="path34" />
  <path
     d="m 12,12 h 6 V 6 h -6 z"
     style="fill:#892651;fill-opacity:1"
     id="path33" />
  <path
     d="m 6,18 h 6 V 12 H 6 Z"
     style="fill:#892651;fill-opacity:1"
     id="path32" />
  <path
     d="M 6,54 V 48 42 36 30 24 18 H 0 v 6 6 6 6 6 6 z"
     style="fill:#892651;fill-opacity:1"
     id="path31" />
  <metadata
     id="metadata52">
    <rdf:RDF>
      <cc:Work
         rdf:about="">
        <dc:title>Group 3</dc:title>
      </cc:Work>
    </rdf:RDF>
  </metadata>
</svg>
