<?xml version="1.0" encoding="UTF-8" standalone="no"?>
<svg
   width="120px"
   height="120px"
   viewBox="0 0 120 120"
   version="1.1"
   id="svg2"
   sodipodi:docname="minion_icon_money1.svg"
   inkscape:version="1.4.2 (ebf0e940, 2025-05-08)"
   xmlns:inkscape="http://www.inkscape.org/namespaces/inkscape"
   xmlns:sodipodi="http://sodipodi.sourceforge.net/DTD/sodipodi-0.dtd"
   xmlns="http://www.w3.org/2000/svg"
   xmlns:svg="http://www.w3.org/2000/svg"
   xmlns:rdf="http://www.w3.org/1999/02/22-rdf-syntax-ns#"
   xmlns:cc="http://creativecommons.org/ns#"
   xmlns:dc="http://purl.org/dc/elements/1.1/">
  <sodipodi:namedview
     id="namedview2"
     pagecolor="#ffffff"
     bordercolor="#000000"
     borderopacity="0.25"
     inkscape:showpageshadow="2"
     inkscape:pageopacity="0.0"
     inkscape:pagecheckerboard="0"
     inkscape:deskcolor="#d1d1d1"
     showgrid="false"
     showguides="true"
     inkscape:zoom="4.0362512"
     inkscape:cx="69.49518"
     inkscape:cy="55.620919"
     inkscape:window-width="1512"
     inkscape:window-height="916"
     inkscape:window-x="0"
     inkscape:window-y="304"
     inkscape:window-maximized="1"
     inkscape:current-layer="svg2">
    <inkscape:grid
       id="grid2"
       units="px"
       originx="0"
       originy="0"
       spacingx="1"
       spacingy="1"
       empcolor="#0099e5"
       empopacity="0.30196078"
       color="#0099e5"
       opacity="0.14901961"
       empspacing="5"
       enabled="true"
       visible="false" />
  </sodipodi:namedview>
  <!-- Generator: Sketch 46 (44423) - http://www.bohemiancoding.com/sketch -->
  <title
     id="title1">Group 5</title>
  <desc
     id="desc1">Created with Sketch.</desc>
  <defs
     id="defs1" />
  <g
     id="g2"
     stroke="none"
     stroke-width="1"
     fill="none"
     fill-rule="evenodd"
     style="fill:#892651;fill-opacity:1;stroke:none;stroke-opacity:1;fill-rule:evenodd;opacity:1">
    <g
       id="Desktop-Home-Copy-5"
       transform="translate(-821.000000, -266.000000)"
       style="fill:#892651;fill-opacity:1;stroke:none;stroke-opacity:1;fill-rule:evenodd">
      <g
         id="Group-4"
         transform="translate(407.000000, 225.000000)"
         style="fill:#892651;fill-opacity:1;stroke:none;stroke-opacity:1;fill-rule:evenodd">
        <g
           id="Group-5"
           transform="translate(414.000000, 41.000000)"
           style="fill:#892651;fill-opacity:1;stroke:none;stroke-opacity:1;fill-rule:evenodd">
          <path
             d="M30,0 L30,10 L40,10 L49.9986667,10 L60,10 L70,10 L79.9986667,10 L90,10 L90,0 L30,0 Z M90,20 L100,20 L100,10 L90,10 L90,20 Z M19.9986667,10 L19.9986667,20 L10,20 L10,30 L0,30 L0,40 L0,50 L0,60 L0,70 L0,80 L0,90 L10,90 L10,80 L10,70 L10,60 L10,50 L10,40 L10,30 L19.9986667,30 L19.9986667,20 L30,20 L30,10 L19.9986667,10 Z M100,30 L110,30 L110,20 L100,20 L100,30 Z M110,30 L110,40 L110,50 L110,60 L110,70 L110,80 L110,90 L120,90 L120,30 L110,30 Z M100,100 L110,100 L110,90 L100,90 L100,100 Z M10,100 L20,100 L20,90 L10,90 L10,100 Z M90,110 L100,110 L100,100 L90,100 L90,110 Z M20,110 L30,110 L30,100 L20,100 L20,110 Z M79.9986667,110 L70,110 L60,110 L49.9986667,110 L40,110 L30,110 L30,120 L40,120 L49.9986667,120 L60,120 L70,120 L79.9986667,120 L90,120 L90,110 L79.9986667,110 Z"
             id="Page-1"
             fill="#FFFFFF"
             style="fill:#892651;fill-opacity:1;stroke:none;stroke-opacity:1;fill-rule:evenodd" />
          <g
             id="g1"
             transform="translate(41.000000, 26.000000)"
             fill="#F7F7F7"
             style="fill:#892651;fill-opacity:1;stroke:none;stroke-opacity:1;fill-rule:evenodd">
            <polygon
               id="Fill-1"
               points="6.09375 16.9473684 0 16.9473684 0 23.6134397 0 30.2631579 6.09375 30.2631579 6.09375 23.6134397"
               style="fill:#892651;fill-opacity:1;stroke:none;stroke-opacity:1;fill-rule:evenodd" />
            <polygon
               id="Fill-2"
               points="25.2972771 30.2631579 18.8899107 30.2631579 12.4668295 30.2631579 6.09375 30.2631579 6.09375 36.3157895 12.4668295 36.3157895 18.8899107 36.3157895 25.2972771 36.3157895 31.6875 36.3157895 31.6875 30.2631579"
               style="fill:#892651;fill-opacity:1;stroke:none;stroke-opacity:1;fill-rule:evenodd" />
            <polygon
               id="Fill-3"
               points="39 42.9907576 39 36.3157895 32.90625 36.3157895 32.90625 42.9907576 32.90625 49.6315789 39 49.6315789"
               style="fill:#892651;fill-opacity:1;stroke:none;stroke-opacity:1;fill-rule:evenodd" />
            <polygon
               id="Fill-4"
               points="0 49.6315789 6.09375 49.6315789 6.09375 43.5789474 0 43.5789474"
               style="fill:#892651;fill-opacity:1;stroke:none;stroke-opacity:1;fill-rule:evenodd" />
            <polygon
               id="Fill-5"
               points="32.90625 23 39 23 39 16.9473684 32.90625 16.9473684"
               style="fill:#892651;fill-opacity:1;stroke:none;stroke-opacity:1;fill-rule:evenodd" />
            <polygon
               id="Fill-6"
               points="18.8899107 16.9473684 25.2972771 16.9473684 31.6875 16.9473684 31.6875 10.2976502 25.2972771 10.2976502 25.2972771 3.63157895 18.8899107 3.63157895 12.4668295 3.63157895 12.4668295 10.2976502 6.09375 10.2976502 6.09375 16.9473684 12.4668295 16.9473684"
               style="fill:#892651;fill-opacity:1;stroke:none;stroke-opacity:1;fill-rule:evenodd" />
            <polygon
               id="Fill-8"
               points="12.4664738 56.2983925 12.4664738 62.9473684 18.8891965 62.9473684 25.2962052 62.9473684 25.2962052 56.2983925 31.6875 56.2983925 31.6875 49.6315789 25.2962052 49.6315789 18.8891965 49.6315789 12.4664738 49.6315789 6.09375 49.6315789 6.09375 56.2983925"
               style="fill:#892651;fill-opacity:1;stroke:none;stroke-opacity:1;fill-rule:evenodd" />
            <polygon
               id="Fill-9"
               points="14.625 69 23.15625 69 23.15625 0 14.625 0"
               style="fill:#892651;fill-opacity:1;stroke:none;stroke-opacity:1;fill-rule:evenodd" />
          </g>
        </g>
      </g>
    </g>
  </g>
  <metadata
     id="metadata9">
    <rdf:RDF>
      <cc:Work
         rdf:about="">
        <dc:title>Group 5</dc:title>
      </cc:Work>
    </rdf:RDF>
  </metadata>
</svg>
