<?xml version="1.0" encoding="UTF-8" standalone="no"?>
<svg
   width="120px"
   height="120px"
   viewBox="0 0 120 120"
   version="1.1"
   id="svg1"
   sodipodi:docname="minion_icon_home1.svg"
   inkscape:version="1.4.2 (ebf0e940, 2025-05-08)"
   xmlns:inkscape="http://www.inkscape.org/namespaces/inkscape"
   xmlns:sodipodi="http://sodipodi.sourceforge.net/DTD/sodipodi-0.dtd"
   xmlns="http://www.w3.org/2000/svg"
   xmlns:svg="http://www.w3.org/2000/svg"
   xmlns:rdf="http://www.w3.org/1999/02/22-rdf-syntax-ns#"
   xmlns:cc="http://creativecommons.org/ns#"
   xmlns:dc="http://purl.org/dc/elements/1.1/">
  <sodipodi:namedview
     id="namedview1"
     pagecolor="#ffffff"
     bordercolor="#000000"
     borderopacity="0.25"
     inkscape:showpageshadow="2"
     inkscape:pageopacity="0.0"
     inkscape:pagecheckerboard="0"
     inkscape:deskcolor="#d1d1d1"
     inkscape:zoom="3.5227768"
     inkscape:cx="61.883"
     inkscape:cy="62.450734"
     inkscape:window-width="1320"
     inkscape:window-height="755"
     inkscape:window-x="0"
     inkscape:window-y="304"
     inkscape:window-maximized="0"
     inkscape:current-layer="svg1" />
  <!-- Generator: Sketch 46 (44423) - http://www.bohemiancoding.com/sketch -->
  <title
     id="title1">Minion</title>
  <desc
     id="desc1">Created with Sketch.</desc>
  <defs
     id="defs1" />
  <g
     id="g1"
     stroke="none"
     stroke-width="1"
     fill="none"
     fill-rule="evenodd"
     style="fill:#892651;fill-opacity:1">
    <g
       id="Desktop-Home-Copy-5"
       transform="translate(-500.000000, -271.000000)"
       fill="#FFFFFF"
       style="fill:#892651;fill-opacity:1">
      <g
         id="Group-4"
         transform="translate(407.000000, 225.000000)"
         style="fill:#892651;fill-opacity:1">
        <g
           id="Minion"
           transform="translate(93.000000, 46.000000)"
           style="fill:#892651;fill-opacity:1">
          <path
             d="M30,0 L30,10 L40,10 L49.9986667,10 L60,10 L70,10 L79.9986667,10 L90,10 L90,0 L30,0 Z M90,20 L100,20 L100,10 L90,10 L90,20 Z M19.9986667,10 L19.9986667,20 L10,20 L10,30 L0,30 L0,40 L0,50 L0,60 L0,70 L0,80 L0,90 L10,90 L10,80 L10,70 L10,60 L10,50 L10,40 L10,30 L19.9986667,30 L19.9986667,20 L30,20 L30,10 L19.9986667,10 Z M100,30 L110,30 L110,20 L100,20 L100,30 Z M110,30 L110,40 L110,50 L110,60 L110,70 L110,80 L110,90 L120,90 L120,30 L110,30 Z M100,100 L110,100 L110,90 L100,90 L100,100 Z M10,100 L20,100 L20,90 L10,90 L10,100 Z M90,110 L100,110 L100,100 L90,100 L90,110 Z M20,110 L30,110 L30,100 L20,100 L20,110 Z M79.9986667,110 L70,110 L60,110 L49.9986667,110 L40,110 L30,110 L30,120 L40,120 L49.9986667,120 L60,120 L70,120 L79.9986667,120 L90,120 L90,110 L79.9986667,110 Z"
             id="Page-1"
             style="fill:#892651;fill-opacity:1" />
          <g
             id="Page-1-Copy"
             transform="translate(35.000000, 26.000000)"
             style="fill:#892651;fill-opacity:1">
            <polygon
               id="Fill-1"
               points="25.5 8.94736842 16.9988667 8.94736842 16.9988667 17.3844228 8.5 17.3844228 8.5 25.8192275 8.5 34.255157 16.9988667 34.255157 16.9988667 42.6922114 8.5 42.6922114 8.5 51.1270161 0 51.1270161 0 59.5629457 0 68 8.5 68 16.9988667 68 25.5 68 34 68 42.4988667 68 51 68 51 51.1270161 42.4988667 51.1270161 42.4988667 42.6922114 34 42.6922114 34 34.255157 42.4988667 34.255157 42.4988667 25.8192275 42.4988667 17.3844228 34 17.3844228 34 8.94736842"
               style="fill:#892651;fill-opacity:1" />
            <polygon
               id="Fill-2"
               points="8.94736842 29.5263158 42.9473684 29.5263158 42.9473684 0 8.94736842 0"
               style="fill:#892651;fill-opacity:1" />
            <polygon
               id="Fill-3"
               points="37.5789474 22.3684211 48.3157895 22.3684211 48.3157895 11.6315789 37.5789474 11.6315789"
               style="fill:#892651;fill-opacity:1" />
            <polygon
               id="Fill-4"
               points="0.894736842 22.3684211 11.6315789 22.3684211 11.6315789 11.6315789 0.894736842 11.6315789"
               style="fill:#892651;fill-opacity:1" />
          </g>
        </g>
      </g>
    </g>
  </g>
  <metadata
     id="metadata1">
    <rdf:RDF>
      <cc:Work
         rdf:about="">
        <dc:title>Minion</dc:title>
      </cc:Work>
    </rdf:RDF>
  </metadata>
</svg>
