<?xml version="1.0" encoding="UTF-8" standalone="no"?>
<svg
   width="102px"
   height="137px"
   viewBox="0 0 102 137"
   version="1.1"
   id="svg1"
   sodipodi:docname="minion1.svg"
   inkscape:version="1.4.2 (ebf0e940, 2025-05-08)"
   xmlns:inkscape="http://www.inkscape.org/namespaces/inkscape"
   xmlns:sodipodi="http://sodipodi.sourceforge.net/DTD/sodipodi-0.dtd"
   xmlns="http://www.w3.org/2000/svg"
   xmlns:svg="http://www.w3.org/2000/svg"
   xmlns:rdf="http://www.w3.org/1999/02/22-rdf-syntax-ns#"
   xmlns:cc="http://creativecommons.org/ns#"
   xmlns:dc="http://purl.org/dc/elements/1.1/">
  <sodipodi:namedview
     id="namedview1"
     pagecolor="#ffffff"
     bordercolor="#000000"
     borderopacity="0.25"
     inkscape:showpageshadow="2"
     inkscape:pageopacity="0.0"
     inkscape:pagecheckerboard="0"
     inkscape:deskcolor="#d1d1d1"
     inkscape:zoom="3.7900211"
     inkscape:cx="49.867796"
     inkscape:cy="66.754245"
     inkscape:window-width="1416"
     inkscape:window-height="789"
     inkscape:window-x="0"
     inkscape:window-y="304"
     inkscape:window-maximized="0"
     inkscape:current-layer="svg1" />
  <!-- Generator: Sketch 46 (44423) - http://www.bohemiancoding.com/sketch -->
  <title
     id="title1">Page 1</title>
  <desc
     id="desc1">Created with Sketch.</desc>
  <defs
     id="defs1" />
  <g
     id="g1"
     stroke="none"
     stroke-width="1"
     fill="none"
     fill-rule="evenodd"
     style="fill:#892651;fill-opacity:1">
    <g
       id="Desktop-Home-Copy-6"
       transform="translate(-459.000000, -299.000000)"
       fill="#FFFFFF"
       style="fill:#892651;fill-opacity:1">
      <g
         id="Group-4"
         transform="translate(410.000000, 225.000000)"
         style="fill:#892651;fill-opacity:1">
        <g
           id="Group"
           transform="translate(38.000000, 74.000000)"
           style="fill:#892651;fill-opacity:1">
          <g
             id="Page-1"
             transform="translate(11.000000, 0.000000)"
             style="fill:#892651;fill-opacity:1">
            <polygon
               id="Fill-1"
               points="51 18 34.0009148 18 34.0009148 35.0015682 16.9990852 35.0015682 16.9990852 52.0003921 16.9990852 68.9992159 34.0009148 68.9992159 34.0009148 86.0007841 16.9990852 86.0007841 16.9990852 103.002352 0 103.002352 0 119.998432 0 137 16.9990852 137 34.0009148 137 51 137 68.0018296 137 84.9981704 137 102 137 102 103.002352 84.9981704 103.002352 84.9981704 86.0007841 68.0018296 86.0007841 68.0018296 68.9992159 84.9981704 68.9992159 84.9981704 52.0003921 84.9981704 35.0015682 68.0018296 35.0015682 68.0018296 18"
               style="fill:#892651;fill-opacity:1" />
            <polygon
               id="Fill-2"
               points="17 59 85 59 85 0 17 0"
               style="fill:#892651;fill-opacity:1" />
            <polygon
               id="Fill-3"
               points="75 45 96 45 96 23 75 23"
               style="fill:#892651;fill-opacity:1" />
            <polygon
               id="Fill-4"
               points="5 45 26 45 26 23 5 23"
               style="fill:#892651;fill-opacity:1" />
          </g>
        </g>
      </g>
    </g>
  </g>
  <metadata
     id="metadata1">
    <rdf:RDF>
      <cc:Work
         rdf:about="">
        <dc:title>Page 1</dc:title>
      </cc:Work>
    </rdf:RDF>
  </metadata>
</svg>
