<?xml version="1.0" encoding="UTF-8" standalone="no"?>
<svg
   width="120px"
   height="120px"
   viewBox="0 0 120 120"
   version="1.1"
   id="svg1"
   sodipodi:docname="Page 11.svg"
   inkscape:version="1.4.2 (ebf0e940, 2025-05-08)"
   xmlns:inkscape="http://www.inkscape.org/namespaces/inkscape"
   xmlns:sodipodi="http://sodipodi.sourceforge.net/DTD/sodipodi-0.dtd"
   xmlns="http://www.w3.org/2000/svg"
   xmlns:svg="http://www.w3.org/2000/svg"
   xmlns:rdf="http://www.w3.org/1999/02/22-rdf-syntax-ns#"
   xmlns:cc="http://creativecommons.org/ns#"
   xmlns:dc="http://purl.org/dc/elements/1.1/">
  <sodipodi:namedview
     id="namedview1"
     pagecolor="#ffffff"
     bordercolor="#000000"
     borderopacity="0.25"
     inkscape:showpageshadow="2"
     inkscape:pageopacity="0.0"
     inkscape:pagecheckerboard="0"
     inkscape:deskcolor="#d1d1d1"
     inkscape:zoom="4.4991785"
     inkscape:cx="59.788692"
     inkscape:cy="59.010772"
     inkscape:window-width="1368"
     inkscape:window-height="780"
     inkscape:window-x="0"
     inkscape:window-y="304"
     inkscape:window-maximized="0"
     inkscape:current-layer="svg1" />
  <!-- Generator: Sketch 46 (44423) - http://www.bohemiancoding.com/sketch -->
  <title
     id="title1">Page 1</title>
  <desc
     id="desc1">Created with Sketch.</desc>
  <defs
     id="defs1" />
  <g
     id="g1"
     stroke="none"
     stroke-width="1"
     fill="none"
     fill-rule="evenodd"
     style="fill:#892651;fill-opacity:1">
    <g
       id="Desktop-Home-Copy-5"
       transform="translate(-500.000000, -271.000000)"
       fill="#FFFFFF"
       style="fill:#892651;fill-opacity:1">
      <g
         id="Group-4"
         transform="translate(407.000000, 225.000000)"
         style="fill:#892651;fill-opacity:1">
        <path
           d="M123,46 L123,56 L133,56 L142.998667,56 L153,56 L163,56 L172.998667,56 L183,56 L183,46 L123,46 Z M183,66 L193,66 L193,56 L183,56 L183,66 Z M112.998667,56 L112.998667,66 L103,66 L103,76 L93,76 L93,86 L93,96 L93,106 L93,116 L93,126 L93,136 L103,136 L103,126 L103,116 L103,106 L103,96 L103,86 L103,76 L112.998667,76 L112.998667,66 L123,66 L123,56 L112.998667,56 Z M193,76 L203,76 L203,66 L193,66 L193,76 Z M203,76 L203,86 L203,96 L203,106 L203,116 L203,126 L203,136 L213,136 L213,76 L203,76 Z M193,146 L203,146 L203,136 L193,136 L193,146 Z M103,146 L113,146 L113,136 L103,136 L103,146 Z M183,156 L193,156 L193,146 L183,146 L183,156 Z M113,156 L123,156 L123,146 L113,146 L113,156 Z M172.998667,156 L163,156 L153,156 L142.998667,156 L133,156 L123,156 L123,166 L133,166 L142.998667,166 L153,166 L163,166 L172.998667,166 L183,166 L183,156 L172.998667,156 Z"
           id="Page-1"
           style="fill:#892651;fill-opacity:1" />
      </g>
    </g>
  </g>
  <metadata
     id="metadata1">
    <rdf:RDF>
      <cc:Work
         rdf:about="">
        <dc:title>Page 1</dc:title>
      </cc:Work>
    </rdf:RDF>
  </metadata>
</svg>
